#!OML:ASF H:\Terrain\Patient Classification 1\Walking\liu\liu.ASF
:FULLY-SPECIFIED
:DEGREES
437
root 15.849451 25.833900 38.661148 10.297710 -3.240600 3.635925
lowerback -10.166670 3.079980 -5.314665
upperback -4.124805 4.426845 0.361335
thorax 1.147285 2.249310 3.666960
lowerneck -27.121952 -8.400360 -21.472649
upperneck 33.501450 -10.482750 19.163549
head 16.817850 -4.401945 9.092054
rclavicle -0.000000 -0.000000
rhumerus -66.496796 14.325854 -135.007492
rradius 44.199448
rwrist -18.484501
rhand -41.354401 -40.231499
rfingers 10.687531
rthumb -1.455343 -85.197899
lclavicle -0.000000 -0.000000
lhumerus -61.231499 -4.922625 133.192642
lradius 28.609352
lwrist -8.245875
lhand -17.899050 -37.060650
lfingers 10.687531
lthumb 21.182701 7.189500
rfemur -2.723040 -2.857485 23.247000
rtibia 82.552948
rfoot 20.687250 -3.305640
rtoes -16.228350
lfemur -46.118851 6.565605 -42.563103
ltibia 47.169750
lfoot -11.623125 9.534735
ltoes 6.690195
438
root 15.829950 25.859398 38.703602 11.421090 -2.815740 0.917453
lowerback -9.725955 3.000000 -2.898750
upperback -4.592520 4.147710 1.286927
thorax 0.513076 2.112720 3.218820
lowerneck -27.331951 -8.411594 -21.954451
upperneck 33.276451 -10.376579 19.443150
head 16.789650 -4.355820 9.292140
rclavicle -0.000000 0.000000
rhumerus -66.342300 14.293545 -134.599503
rradius 44.383652
rwrist -17.807999
rhand -45.488400 -35.324699
rfingers 10.687531
rthumb -5.447865 -80.247902
lclavicle -0.000000 0.000000
lhumerus -59.540100 -5.976120 133.887299
lradius 28.493849
lwrist -7.735305
lhand -17.467350 -36.112648
lfingers 10.687531
lthumb 21.598801 8.108130
rfemur -7.262730 -2.153145 27.363001
rtibia 85.631546
rfoot 18.363600 -7.136055
rtoes -13.764734
lfemur -47.342701 6.401985 -39.370499
ltibia 46.638298
lfoot -10.848555 9.485430
ltoes 2.802120
439
root 15.814949 25.881449 38.770500 11.895720 -2.684835 -0.947903
lowerback -7.292910 2.666040 -1.468574
upperback -6.688650 3.622650 1.946775
thorax -2.941260 1.884690 2.930955
lowerneck -25.079550 -7.763295 -21.854549
upperneck 34.265549 -9.865709 19.337399
head 16.617001 -4.209240 9.366329
rclavicle 0.000000 0.000000
rhumerus -69.817497 15.029099 -135.720459
rradius 45.082649
rwrist -18.057899
rhand -54.430351 -24.552448
rfingers 10.687531
rthumb -14.079929 -69.208954
lclavicle 0.000000 0.000000
lhumerus -61.285801 -6.300105 134.076157
lradius 28.570650
lwrist -7.590855
lhand -20.071201 -37.813049
lfingers 10.687531
lthumb 19.089149 6.575250
rfemur -11.145180 -1.495743 30.151949
rtibia 88.710144
rfoot 15.701851 -9.758595
rtoes -14.570745
lfemur -47.956501 6.412470 -37.143150
ltibia 46.666351
lfoot -10.669275 9.586845
ltoes 0.492298
440
root 15.860850 25.929150 39.018150 11.236305 -2.356800 1.088040
lowerback -9.003180 2.109120 -3.265560
upperback -4.477410 2.967930 1.520865
thorax 0.268938 1.529805 3.571590
lowerneck -28.726498 -8.246535 -21.271500
upperneck 34.551899 -10.108005 18.842550
head 17.446201 -4.208145 9.035234
rclavicle 0.000000 0.000000
rhumerus -66.914253 16.503300 -135.856201
rradius 45.518547
rwrist -19.581900
rhand -52.265247 -32.903702
rfingers 10.687531
rthumb -11.990625 -77.646896
lclavicle 0.000000 0.000000
lhumerus -56.463753 -6.717990 134.130463
lradius 28.204651
lwrist -7.435650
lhand -19.917301 -37.178703
lfingers 10.687531
lthumb 19.237499 7.200315
rfemur -12.013289 -2.682120 27.545849
rtibia 90.812546
rfoot 13.170166 -9.779610
rtoes -15.052051
lfemur -45.628799 6.309015 -39.613503
ltibia 45.897751
lfoot -11.467110 9.267300
ltoes -1.735320
441
root 15.873751 25.961250 39.131100 11.843625 -1.847490 -0.085034
lowerback -7.897230 1.833345 -2.050980
upperback -5.792595 2.530470 1.893615
thorax -1.649445 1.331699 3.199830
lowerneck -26.909550 -7.235370 -19.941299
upperneck 34.857452 -8.996520 17.593800
head 16.924650 -3.787770 8.511946
rclavicle -0.000000 0.000000
rhumerus -69.166046 17.021851 -136.469101
rradius 46.256699
rwrist -20.192850
rhand -49.878304 -36.976952
rfingers 10.687531
rthumb -9.686550 -81.799194
lclavicle -0.000000 0.000000
lhumerus -57.117748 -7.046145 134.109894
lradius 28.787849
lwrist -8.130091
lhand -17.901451 -35.499001
lfingers 10.687531
lthumb 21.180450 8.751255
rfemur -15.137549 -2.894685 29.326050
rtibia 92.482201
rfoot 11.838779 -11.827425
rtoes -11.970884
lfemur -45.391651 6.316125 -38.391750
ltibia 44.562000
lfoot -10.852650 8.845980
ltoes -3.348795
442
root 15.989699 26.050201 39.579601 10.308930 -1.627785 3.465570
lowerback -9.222630 1.195573 -4.649445
upperback -5.345580 1.824900 0.911780
thorax -0.458077 0.991164 3.650460
lowerneck -25.328999 -6.789450 -20.187450
upperneck 34.503750 -8.669504 18.343349
head 16.461899 -3.620835 8.882910
rclavicle 0.000000 0.000000
rhumerus -70.709549 17.344200 -136.617599
rradius 46.613701
rwrist -19.583099
rhand -48.234901 -38.549099
rfingers 10.687531
rthumb -8.099834 -83.415901
lclavicle 0.000000 0.000000
lhumerus -57.306450 -7.157700 134.109894
lradius 29.310001
lwrist -8.383935
lhand -16.996950 -34.982399
lfingers 10.687531
lthumb 22.051949 9.205800
rfemur -12.791235 -4.892475 23.844749
rtibia 92.673752
rfoot 9.396930 -10.139130
rtoes -11.186880
lfemur -40.113899 6.793635 -42.920551
ltibia 42.481049
lfoot -12.645090 7.909185
ltoes -2.962500
443
root 16.036650 26.088449 39.833549 9.399435 -1.490183 5.127195
lowerback -9.450360 0.895215 -6.019230
upperback -4.273755 1.527285 0.554467
thorax 0.771720 0.815779 4.050000
lowerneck -26.776949 -6.814680 -20.036999
upperneck 34.715549 -8.462700 17.927401
head 16.776600 -3.518745 8.736735
rclavicle -0.000000 -0.000000
rhumerus -69.467102 17.121901 -135.869400
rradius 46.930801
rwrist -18.295200
rhand -47.635799 -41.942249
rfingers 10.687531
rthumb -7.521465 -86.823296
lclavicle -0.000000 -0.000000
lhumerus -54.685799 -8.882071 134.837708
lradius 29.520000
lwrist -7.136909
lhand -17.180700 -34.813801
lfingers 10.687531
lthumb 21.874950 9.387105
rfemur -13.011615 -5.493300 21.577499
rtibia 93.375298
rfoot 7.496655 -9.591705
rtoes -14.423399
lfemur -37.209900 6.918150 -44.842499
ltibia 41.091000
lfoot -13.304144 7.529565
ltoes 0.956712
444
root 16.056149 26.144100 40.051498 9.060630 -1.133747 4.654050
lowerback -9.661680 0.821507 -5.383410
upperback -3.505200 1.411685 0.752057
thorax 1.699485 0.724766 3.899820
lowerneck -28.979250 -7.478100 -20.667450
upperneck 35.349751 -9.068010 18.260401
head 17.583599 -3.752010 8.910180
rclavicle -0.000000 0.000000
rhumerus -68.159698 16.701000 -135.206696
rradius 47.061150
rwrist -18.127951
rhand -48.648148 -42.955498
rfingers 10.687531
rthumb -8.498955 -87.811951
lclavicle -0.000000 0.000000
lhumerus -51.970951 -10.520730 135.338547
lradius 29.394451
lwrist -7.100534
lhand -17.437349 -34.812752
lfingers 10.687531
lthumb 21.627750 9.406020
rfemur -14.205646 -5.363205 22.344151
rtibia 93.701996
rfoot 5.545035 -10.149105
rtoes -18.253799
lfemur -35.566048 6.869115 -44.253899
ltibia 40.065151
lfoot -13.621410 7.284465
ltoes 3.868170
445
root 16.066050 26.139751 40.219948 9.000404 -0.687372 3.245325
lowerback -9.051510 0.572540 -3.908955
upperback -5.046300 0.954561 1.233534
thorax -0.181209 0.539872 3.517425
lowerneck -24.106800 -6.538515 -20.522850
upperneck 34.973999 -8.238210 17.682301
head 16.318649 -3.569445 8.771565
rclavicle -0.000000 0.000000
rhumerus -71.446800 16.258650 -135.355499
rradius 47.634899
rwrist -17.864100
rhand -46.927052 -41.624397
rfingers 10.687531
rthumb -6.837060 -86.520897
lclavicle -0.000000 0.000000
lhumerus -53.781452 -10.683135 135.475204
lradius 29.541750
lwrist -8.459520
lhand -17.049301 -35.179199
lfingers 10.687531
lthumb 22.001549 9.012585
rfemur -16.086300 -4.890315 24.334049
rtibia 94.589401
rfoot 2.709015 -11.043870
rtoes -18.376949
lfemur -34.605751 7.193550 -42.844051
ltibia 39.881550
lfoot -14.172960 7.170526
ltoes 0.602370
446
root 16.087200 26.195248 40.373550 9.208245 -0.243115 2.157975
lowerback -9.192510 0.181572 -2.856060
upperback -4.827180 0.380390 1.728615
thorax 0.161729 0.236550 3.403725
lowerneck -24.816450 -5.978910 -18.921299
upperneck 35.276550 -7.328355 15.861149
head 16.336651 -3.198420 7.942260
rclavicle 0.000000 0.000000
rhumerus -71.055145 16.159500 -134.576401
rradius 48.402298
rwrist -17.330849
rhand -50.418449 -41.531250
rfingers 10.687531
rthumb -10.207965 -86.337151
lclavicle 0.000000 0.000000
lhumerus -51.608849 -10.946040 135.319809
lradius 29.454300
lwrist -9.052995
lhand -16.428450 -35.394451
lfingers 10.687531
lthumb 22.599600 8.753115
rfemur -18.004950 -4.681035 25.866451
rtibia 95.228249
rfoot -0.014708 -11.284019
rtoes -16.171200
lfemur -34.632748 6.670830 -41.495102
ltibia 40.130699
lfoot -14.777340 7.053705
ltoes 3.686415
447
root 16.107151 26.193748 40.504501 9.536580 0.181093 1.832340
lowerback -9.386475 -0.201213 -2.569260
upperback -4.531635 -0.144626 2.027130
thorax 0.602012 -0.035159 3.518100
lowerneck -25.963949 -6.083850 -19.324650
upperneck 35.011650 -7.411455 16.650002
head 16.507950 -3.149595 8.291955
rclavicle 0.000000 -0.000000
rhumerus -70.346252 15.920400 -133.694244
rradius 48.954449
rwrist -16.893749
rhand -50.738548 -40.327499
rfingers 10.687531
rthumb -10.516965 -85.123352
lclavicle 0.000000 -0.000000
lhumerus -49.298252 -11.303040 135.315750
lradius 29.733450
lwrist -9.281925
lhand -16.288950 -35.464798
lfingers 10.687531
lthumb 22.734001 8.672685
rfemur -20.577900 -4.810755 26.519251
rtibia 96.111145
rfoot -1.954860 -11.302455
rtoes -18.321301
lfemur -34.461449 6.554894 -41.243099
ltibia 40.358101
lfoot -15.477301 7.086525
ltoes 0.069779
448
root 16.124849 26.182499 40.639950 9.589815 0.436044 2.047650
lowerback -9.318914 -0.631256 -2.891910
upperback -3.734790 -0.701067 2.029260
thorax 1.416492 -0.329055 3.663480
lowerneck -29.176949 -6.271800 -18.653099
upperneck 35.673302 -7.551826 16.706400
head 17.393400 -3.065550 8.210415
rclavicle 0.000000 0.000000
rhumerus -68.526154 15.808351 -133.392746
rradius 49.017899
rwrist -16.862400
rhand -48.529350 -40.411648
rfingers 10.687531
rthumb -8.384145 -85.271103
lclavicle 0.000000 0.000000
lhumerus -45.994801 -11.719425 134.719955
lradius 30.028202
lwrist -8.924940
lhand -15.049951 -34.904999
lfingers 10.687531
lthumb 23.927250 9.139786
rfemur -23.038349 -4.839390 26.561848
rtibia 96.770096
rfoot -3.366390 -11.609159
rtoes -23.133450
lfemur -34.021500 6.228795 -41.495251
ltibia 40.784100
lfoot -16.311600 7.530840
ltoes -3.090735
449
root 16.129501 26.184452 40.786949 9.246345 0.472021 2.159115
lowerback -8.743980 -0.588367 -2.948850
upperback -3.682425 -0.648696 1.963440
thorax 1.147735 -0.300084 3.633315
lowerneck -29.156551 -6.401325 -18.569700
upperneck 36.018898 -7.699830 16.374901
head 17.530800 -3.168495 8.056815
rclavicle 0.000000 -0.000000
rhumerus -69.007500 15.415501 -133.306046
rradius 49.682404
rwrist -18.066750
rhand -46.202251 -42.340500
rfingers 10.687531
rthumb -6.137176 -87.251099
lclavicle 0.000000 -0.000000
lhumerus -44.396999 -13.841129 135.037506
lradius 30.058050
lwrist -7.993020
lhand -14.003895 -34.484100
lfingers 10.687531
lthumb 24.934498 9.478080
rfemur -24.788998 -4.304970 26.800350
rtibia 97.261345
rfoot -5.403315 -12.070545
rtoes -25.042801
lfemur -33.048149 5.770560 -41.434200
ltibia 40.598999
lfoot -17.045101 7.867905
ltoes -2.858085
450
root 16.135349 26.190300 40.926601 8.984850 0.578391 1.352336
lowerback -8.067030 -0.661665 -2.091390
upperback -4.058820 -0.798897 2.198580
thorax 0.388335 -0.368052 3.388350
lowerneck -27.632549 -6.172305 -18.393900
upperneck 35.929497 -7.499055 15.984301
head 17.148300 -3.147960 7.899780
rclavicle 0.000000 -0.000000
rhumerus -70.230301 15.407400 -133.357788
rradius 50.580902
rwrist -18.842100
rhand -46.126652 -42.662697
rfingers 10.687531
rthumb -6.064215 -87.574646
lclavicle 0.000000 -0.000000
lhumerus -44.074650 -16.070850 135.552155
lradius 30.371250
lwrist -7.494645
lhand -15.285450 -34.967552
lfingers 10.687531
lthumb 23.700600 9.095220
rfemur -26.520149 -3.489675 28.045650
rtibia 97.532700
rfoot -8.077169 -12.494625
rtoes -26.527800
lfemur -32.114853 5.533575 -40.412552
ltibia 40.165047
lfoot -17.624550 7.887240
ltoes -2.011965
